<?xml version="1.0" encoding="utf-8"?>
<!-- Generator: Adobe Illustrator 16.0.0, SVG Export Plug-In . SVG Version: 6.00 Build 0)  -->
<!DOCTYPE svg PUBLIC "-//W3C//DTD SVG 1.1//EN" "http://www.w3.org/Graphics/SVG/1.1/DTD/svg11.dtd">
<svg version="1.1" id="Layer_1" xmlns="http://www.w3.org/2000/svg" xmlns:xlink="http://www.w3.org/1999/xlink" x="0px" y="0px"
	 width="140px" height="85px" viewBox="0 0 140 85" enable-background="new 0 0 140 85" xml:space="preserve">
<g>
	<g>
		<path fill="#272727" d="M138.752,71.531C138.752,33.56,107.97,2.779,70,2.779c-37.971,0-68.752,30.78-68.752,68.752
			c0,3.636,0.288,7.205,0.832,10.689h135.841C138.464,78.736,138.752,75.167,138.752,71.531z"/>
	</g>
	<g>
		<g>
			<g>
				<path fill="#F6D034" d="M74.717,74.003c-2.072,0.668-4.296-0.472-4.964-2.548c-0.667-2.069,0.47-4.291,2.545-4.961
					c2.073-0.665,4.294,0.474,4.96,2.546C77.925,71.115,76.788,73.335,74.717,74.003z"/>
				<polygon fill="#F6D034" points="74.717,74.003 72.298,66.494 98.11,62.161 98.21,62.472 				"/>
			</g>
			<g>
				<g>
					<path fill="#E1E1E1" d="M88.847,19.582l-3.378,9.669c7.745,2.825,14.492,7.717,19.595,14l8.107-6.275
						C106.867,29.147,98.479,23.067,88.847,19.582z"/>
				</g>
				<path fill="#F6D034" d="M107.045,45.879c5.042,7.226,8.035,15.988,8.111,25.45H125.4c-0.079-11.824-3.858-22.767-10.241-31.73
					L107.045,45.879z"/>
				<g>
					<path fill="#E1E1E1" d="M27.233,36.475l8.103,6.273c5.153-6.163,11.918-10.925,19.646-13.65l-3.382-9.674
						C41.988,22.807,33.588,28.766,27.233,36.475z"/>
				</g>
				<g>
					<path fill="#E1E1E1" d="M69.997,16.292c-5.292,0-10.411,0.743-15.26,2.129l3.389,9.699c3.783-1.029,7.762-1.588,11.871-1.588
						c4.278,0,8.412,0.607,12.333,1.718l3.388-9.692C80.732,17.085,75.46,16.292,69.997,16.292z"/>
				</g>
				<g>
					<path fill="#E1E1E1" d="M14.597,71.329h10.244c0.079-9.693,3.221-18.65,8.488-25.976l-8.112-6.277
						C18.606,48.136,14.676,59.274,14.597,71.329z"/>
				</g>
			</g>
		</g>
	</g>
</g>
</svg>
