<?xml version="1.0" encoding="utf-8"?>
<!-- Generator: Adobe Illustrator 16.0.0, SVG Export Plug-In . SVG Version: 6.00 Build 0)  -->
<!DOCTYPE svg PUBLIC "-//W3C//DTD SVG 1.1//EN" "http://www.w3.org/Graphics/SVG/1.1/DTD/svg11.dtd">
<svg version="1.1" id="Layer_1" xmlns="http://www.w3.org/2000/svg" xmlns:xlink="http://www.w3.org/1999/xlink" x="0px" y="0px"
	 width="140px" height="85px" viewBox="0 0 140 85" enable-background="new 0 0 140 85" xml:space="preserve">
<g>
	<g>
		<path fill="#272727" d="M138.752,71.531c0-37.972-30.781-68.752-68.752-68.752c-37.97,0-68.752,30.78-68.752,68.752
			c0,3.636,0.288,7.205,0.832,10.689h135.841C138.464,78.736,138.752,75.167,138.752,71.531z"/>
	</g>
	<g>
		<g>
			<g>
				<path fill="#F6D034" d="M73.843,67.36c0.023,2.177-1.725,3.961-3.905,3.983c-2.175,0.023-3.959-1.723-3.982-3.902
					c-0.021-2.177,1.726-3.96,3.902-3.983C72.037,63.437,73.82,65.183,73.843,67.36z"/>
				<polygon fill="#F6D034" points="73.843,67.36 65.955,67.441 69.475,41.506 69.801,41.502 				"/>
			</g>
			<g>
				<g>
					<path fill="#E1E1E1" d="M88.848,19.582l-3.378,9.669c7.744,2.825,14.492,7.717,19.595,14l8.107-6.275
						C106.868,29.147,98.479,23.067,88.848,19.582z"/>
				</g>
				<g>
					<path fill="#E1E1E1" d="M107.045,45.879c5.043,7.226,8.035,15.988,8.112,25.45h10.244c-0.08-11.824-3.859-22.767-10.242-31.73
						L107.045,45.879z"/>
				</g>
				<g>
					<path fill="#E1E1E1" d="M27.234,36.475l8.103,6.273c5.152-6.163,11.917-10.925,19.646-13.65l-3.381-9.674
						C41.988,22.807,33.589,28.766,27.234,36.475z"/>
				</g>
				<path fill="#F6D034" d="M69.998,16.292c-5.292,0-10.412,0.743-15.261,2.129l3.389,9.699c3.784-1.029,7.762-1.588,11.872-1.588
					c4.278,0,8.411,0.607,12.332,1.718l3.388-9.692C80.733,17.085,75.46,16.292,69.998,16.292z"/>
				<g>
					<path fill="#E1E1E1" d="M14.598,71.329h10.243c0.079-9.693,3.221-18.65,8.488-25.976l-8.111-6.277
						C18.606,48.136,14.677,59.274,14.598,71.329z"/>
				</g>
			</g>
		</g>
	</g>
</g>
</svg>
