<?xml version="1.0" encoding="utf-8"?>
<!-- Generator: Adobe Illustrator 16.0.0, SVG Export Plug-In . SVG Version: 6.00 Build 0)  -->
<!DOCTYPE svg PUBLIC "-//W3C//DTD SVG 1.1//EN" "http://www.w3.org/Graphics/SVG/1.1/DTD/svg11.dtd">
<svg version="1.1" id="Layer_1" xmlns="http://www.w3.org/2000/svg" xmlns:xlink="http://www.w3.org/1999/xlink" x="0px" y="0px"
	 width="60px" height="60px" viewBox="0 0 60 60" enable-background="new 0 0 60 60" xml:space="preserve">
<g>
	<path d="M27.405,49.582c-1.54-0.762-2.914-1.717-4.181-2.65c-1.82-1.342-3.507-2.734-5.014-4.146
		c-4.813-4.504-7.984-9.064-9.427-13.552c-0.674-2.097-0.936-4.247-0.757-6.216c0.19-2.084,0.825-3.803,1.938-5.256
		c1.85-2.412,4.577-3.85,7.295-3.85c0.159,0,0.318,0.005,0.476,0.014c1.469,0.094,2.809,0.558,3.871,1.342
		c0.238,0.178,0.476,0.375,0.701,0.583l5.042,4.667l5.076-4.628c0.789-0.72,1.71-1.269,2.666-1.591
		c0.739-0.248,1.525-0.375,2.339-0.375c2.054,0,4.123,0.773,5.825,2.178c1.201,0.992,2.171,2.329,2.801,3.863
		c0.692,1.686,0.932,3.692,0.692,5.806c-0.515,4.556-2.96,9.287-7.262,14.066c-1.85,2.053-3.948,4.01-6.238,5.818
		C31.439,47.08,29.516,48.539,27.405,49.582z"/>
</g>
<path fill="#FFFFFF" d="M29.98,56.814c-0.692,0-1.395-0.158-2.034-0.459l-0.108-0.041l-0.139-0.08
	c-2.687-1.164-4.931-2.705-6.772-4.063c-2.162-1.594-4.178-3.26-5.99-4.955c-6.058-5.67-10.11-11.596-12.042-17.612
	c-1.03-3.209-1.426-6.552-1.142-9.67c0.334-3.67,1.557-6.903,3.634-9.611c3.428-4.47,8.635-7.138,13.93-7.138
	c0.331,0,0.668,0.011,0.998,0.032c3.062,0.193,5.918,1.209,8.257,2.938c0.488,0.36,0.961,0.752,1.409,1.169
	c1.633-1.489,3.558-2.632,5.598-3.317c1.591-0.536,3.265-0.809,4.979-0.809c3.988,0,7.947,1.455,11.147,4.097
	c2.26,1.865,4.065,4.337,5.221,7.147c1.23,2.998,1.67,6.452,1.268,9.992c-0.731,6.459-3.968,12.918-9.618,19.194
	c-2.245,2.492-4.782,4.861-7.546,7.041c-2.576,2.033-5.634,4.328-9.317,5.809C31.159,56.701,30.577,56.814,29.98,56.814z"/>
<path fill="#0A0D0B" d="M53.282,15.939c-0.891-2.167-2.274-4.112-4.086-5.607c-3.395-2.803-8.115-4.023-12.36-2.594
	c-1.673,0.563-3.187,1.51-4.457,2.734c-0.962,0.93-1.744,2.007-2.392,3.166c-0.948-1.673-2.175-3.148-3.755-4.315
	c-1.786-1.319-3.96-2.036-6.166-2.176C15.548,6.861,11.217,9.19,8.51,12.72C5.096,17.173,4.983,23.236,6.641,28.4
	c1.994,6.209,6.285,11.542,10.986,15.942c1.781,1.666,3.671,3.213,5.634,4.66c1.958,1.443,3.965,2.766,6.21,3.709
	c0.016,0.01,0.031,0.018,0.047,0.027l0.002,0.002c0.012,0.006,0.023,0.012,0.033,0.02c0.212,0.117,0.459,0.16,0.689,0.068
	c3.072-1.238,5.762-3.209,8.349-5.25c2.526-1.994,4.901-4.189,7.056-6.584c4.286-4.76,7.9-10.521,8.633-17.002
	C54.587,21.294,54.318,18.462,53.282,15.939z"/>
<g>
	<path fill="#3B3E3C" d="M29.987,51.906c1.081-0.432,1.948-0.865,3.028-1.514c9.517-6.055,21.627-17.951,20.329-30.277
		C52.046,7.572,35.395,2.813,29.987,15.789l0.006-0.004C24.585,2.808,7.934,7.566,6.636,20.111
		C5.338,32.438,17.45,44.332,26.964,50.387c1.081,0.65,1.946,1.082,3.028,1.514L29.987,51.906z"/>
	<g>
		<g>
			<path fill="#434644" d="M53.124,25.319c0.311-1.715,0.404-3.454,0.22-5.203c-1.298-12.541-17.942-17.3-23.353-4.335
				C24.583,2.81,7.934,7.568,6.636,20.111c-0.854,8.105,4.093,16.024,10.286,22.221c4.9-0.932,10.178-3.67,14.996-7.066
				C31.918,35.266,44.162,26.025,53.124,25.319z"/>
		</g>
	</g>
	<linearGradient id="SVGID_1_" gradientUnits="userSpaceOnUse" x1="29.5244" y1="34.8633" x2="29.5244" y2="0.9171">
		<stop  offset="0" style="stop-color:#525252"/>
		<stop  offset="0.9896" style="stop-color:#FFFFFF"/>
	</linearGradient>
	<path opacity="0.25" fill="url(#SVGID_1_)" d="M22.428,30.393c1.631-0.528,3.222-1.199,4.703-2.066
		c1.779-1.042,3.413-2.348,5.068-3.569c3.725-2.75,7.56-5.607,11.975-7.146c2.075-0.723,4.292-1.14,6.494-0.996
		c0.354,0.024,0.704,0.062,1.053,0.109c-0.722-1.841-1.854-3.482-3.327-4.793c-2.186-1.944-5.029-3.059-7.8-3.059
		c-4.363,0-7.964,2.628-9.875,7.209l-0.728,1.742l-0.728-1.742c-1.913-4.585-5.512-7.214-9.878-7.214
		c-2.771,0-5.613,1.115-7.799,3.059c-2.354,2.092-3.832,5.026-4.167,8.266c-0.295,2.793,0.124,5.729,1.245,8.722
		c0.235,0.631,0.504,1.265,0.802,1.902c0.68,0.238,1.384,0.422,2.105,0.551C15.173,32.014,18.969,31.51,22.428,30.393z"/>
</g>
</svg>
